<svg width="700" height="700" viewBox="0 0 700 700" fill="none" xmlns="http://www.w3.org/2000/svg">
<rect width="700" height="700" fill="white"/>
<path d="M236.661 456.492H196.236C183.449 456.492 173.32 453.424 165.86 447.311C159.977 442.5 155.833 435.964 153.412 427.667C151.804 422.24 151 416.32 151 409.935C151 408.464 151 407.399 151.019 406.807C151.049 406.196 151.095 405.652 151.171 405.18V359.738H173.615V405.204C173.615 413.388 175.407 420.286 179.015 425.885C183.173 432.335 188.897 435.545 196.195 435.545H236.661V456.492ZM345.833 456.492H321.853L295.373 382.103C295.197 381.336 294.62 380.936 293.624 380.936C292.68 380.936 291.993 381.336 291.548 382.103L265.65 456.492H241.324C242.705 451.903 245.685 442.787 250.258 429.139C254.57 416.179 259.007 403.26 263.568 390.386C268.39 376.85 271.33 369.306 272.368 367.786C274.36 365.088 277.277 363.035 281.096 361.612C284.914 360.19 289.061 359.476 293.536 359.476C298.02 359.476 302.156 360.19 305.966 361.612C309.744 363.035 312.62 365.088 314.622 367.786C315.841 369.367 318.83 376.85 323.581 390.231C326.528 398.464 330.894 411.374 336.705 428.98C340.244 439.682 343.289 448.855 345.833 456.492ZM453.081 437.148C453.081 443.28 450.425 448.351 445.115 452.365C440.126 456.109 434.179 457.996 427.255 457.996C421.29 457.996 415.917 456.479 411.154 453.456C405.834 450.079 402.063 445.235 399.849 438.918C399.407 437.651 397.389 430.763 393.789 418.258C390.522 406.927 387.657 398.063 385.234 391.632C381.861 382.912 379.118 378.663 377.013 378.927C375.639 379.256 374.666 379.788 374.106 380.558C373.567 381.335 373.287 382.403 373.287 383.762V456.423H350.826V378.875C350.826 371.803 353.641 366.422 359.24 362.736C364.066 359.563 370.243 357.996 377.799 357.996C387.899 357.996 395.914 362.826 401.853 372.516C405.835 378.976 409.635 389.432 413.239 403.896C417.239 419.783 420.147 429.639 421.993 433.45C422.985 435.51 424.513 436.548 426.566 436.548C427.679 436.548 428.634 436.129 429.442 435.284C430.23 434.427 430.645 433.253 430.645 431.781V359.071H453.082L453.081 437.148ZM508.083 435.545C513.35 435.545 517.596 432.575 520.795 426.674C523.704 421.282 525.176 414.783 525.176 407.195C525.176 399.788 523.77 393.592 520.97 388.574C517.803 382.978 513.528 380.184 508.083 380.184H484.775V435.544L508.083 435.545ZM511.867 456.492H462.33V359.736H511.867C523.584 359.736 532.939 364.854 539.904 375.083C546.211 384.32 549.364 395.599 549.364 408.9C549.364 421.892 546.263 432.82 540.071 441.687C533.154 451.571 523.758 456.492 511.867 456.492Z" fill="#FF3838"/>
<path d="M127.012 339.757H77.4999C65.5986 339.757 56.196 334.837 49.3013 324.953C43.1013 316.086 40 305.158 40 292.166C40 278.97 43.1547 267.726 49.464 258.436C56.444 248.134 65.7719 243.002 77.4999 243.002H127.013V263.446H81.1946C75.6612 263.446 71.3386 266.242 68.1946 271.834C65.3653 276.857 63.9493 283.053 63.9493 290.461C63.9493 298.049 65.4213 304.543 68.3386 309.939C71.5533 315.841 75.8359 318.81 81.1946 318.81H127.012V339.757ZM222.021 304.997C222.021 316.19 217.468 325.091 208.381 331.741C200.181 337.754 190.162 340.754 178.298 340.754C166.756 340.754 157.058 337.805 149.205 331.891C140.386 325.303 135.972 316.337 135.972 304.998V243.001H157.922V301.454C157.922 306.518 160.202 310.571 164.741 313.621C168.91 316.417 173.91 317.813 179.805 317.813C185.438 317.813 190.2 316.469 194.09 313.778C198.408 310.778 200.562 306.666 200.562 301.454V243.001H222.021V304.997ZM316.707 339.757H276.282C263.495 339.757 253.366 336.689 245.891 330.575C240.028 325.765 235.873 319.229 233.452 310.931C231.844 305.505 231.038 299.585 231.038 293.199C231.038 291.729 231.038 290.663 231.058 290.071C231.1 289.461 231.134 288.917 231.217 288.445V243.002H253.654V288.469C253.654 296.653 255.454 303.55 259.054 309.15C263.219 315.599 268.929 318.81 276.241 318.81H316.707V339.757ZM378.154 263.447H355.215V339.758H333.017V263.447H310.066V243.004H378.154V263.447ZM470.168 304.997C470.168 316.19 465.615 325.091 456.524 331.741C448.328 337.754 438.311 340.754 426.435 340.754C414.907 340.754 405.222 337.805 397.342 331.891C388.538 325.303 384.127 316.337 384.127 304.998V243.001H406.074V301.454C406.074 306.518 408.344 310.571 412.895 313.621C417.047 316.417 422.066 317.813 427.94 317.813C433.578 317.813 438.355 316.469 442.238 313.778C446.555 310.778 448.714 306.666 448.714 301.454V243.001H470.168V304.997ZM566.031 339.829L502.308 315.562V339.689H480.116V307.645C480.116 299.935 482.09 293.702 486.087 288.966C490.716 283.419 497.539 280.661 506.546 280.661H533.993C536.54 280.661 538.503 279.823 539.884 278.163C541.253 276.506 541.964 274.549 541.964 272.281C541.964 269.869 541.292 267.835 539.967 266.205C538.469 264.359 536.484 263.446 533.993 263.446H480.116V243.002H537.836C546.461 243.002 553.295 246.021 558.332 252.096C562.876 257.594 565.159 264.318 565.159 272.299C565.159 280.227 562.876 286.929 558.332 292.411C553.295 298.535 546.449 301.597 537.809 301.597H523.865L566.031 316.991V339.829ZM660.421 339.757H602.719C594.092 339.757 587.259 336.681 582.228 330.49C577.689 324.953 575.407 318.138 575.407 310.063C575.407 302.783 577.327 296.459 581.145 291.129C577.327 285.803 575.407 279.543 575.407 272.37C575.407 264.45 577.689 257.718 582.228 252.183C587.259 246.058 594.092 243.002 602.719 243.002H660.421V263.446H606.496C604.061 263.446 602.141 264.318 600.725 266.083C599.319 267.846 598.609 269.918 598.609 272.279C598.609 274.593 599.276 276.574 600.628 278.207C601.991 279.846 603.945 280.661 606.495 280.661H660.421V301.595H603.421C601.933 302.237 600.768 303.358 599.904 304.946C599.036 306.539 598.609 308.301 598.609 310.203C598.609 312.603 599.276 314.67 600.628 316.425C601.991 318.179 603.945 319.063 606.495 319.063H660.421V339.757Z" fill="#FF3838"/>
</svg>