<svg width="245" height="57" viewBox="0 0 245 57" fill="none" xmlns="http://www.w3.org/2000/svg">
<mask id="mask0_7064_154" style="mask-type:luminance" maskUnits="userSpaceOnUse" x="0" y="0" width="245" height="57">
<path d="M244.3 0H0V56.7H244.3V0Z" fill="white"/>
</mask>
<g mask="url(#mask0_7064_154)">
<path d="M5.1 43.8H0V1.1L5.1 0V43.8ZM18.7 12.8L22.7 15.7L12.9 28L24.2 41.6L20.3 44.6L6.9 28.2L18.7 12.8Z" fill="#FEE500"/>
<path d="M28 35.7C28 32.6 29 30.3 31.1 28.7C33.1 27.1 36.1 26.3 40 26.3H45.9V24.4C45.9 19.7 43.8 17.4 39.7 17.4C38.4 17.4 37 17.6 35.5 18C34 18.4 32.7 18.8 31.5 19.4L30 15.7C31.5 14.9 33.1 14.2 34.9 13.7C36.6 13.2 38.4 13 40 13C47.1 13 50.7 16.8 50.7 24.4V43.7H46.9L46.3 40.4C44.8 41.6 43.2 42.6 41.5 43.2C39.8 43.9 38.2 44.2 36.6 44.2C33.9 44.2 31.8 43.4 30.3 41.9C28.8 40.5 28 38.3 28 35.7ZM37.5 40.2C38.2 40.2 38.9 40.1 39.7 39.9C40.5 39.7 41.2 39.5 42 39.2C42.8 38.9 43.5 38.5 44.1 38.1C44.8 37.7 45.4 37.2 45.9 36.7V29.6H40.6C37.9 29.6 36 30.1 34.7 31C33.5 31.9 32.9 33.4 32.9 35.4C32.8 38.6 34.4 40.2 37.5 40.2Z" fill="#FEE500"/>
<path d="M65.7 43.8H60.6V1.1L65.7 0V43.8ZM79.3 12.8L83.3 15.7L73.5 28L84.8 41.6L80.9 44.6L67.6 28.2L79.3 12.8Z" fill="#FEE500"/>
<path d="M88.7 35.6996C88.7 32.5996 89.7 30.2996 91.8 28.6996C93.9 27.0996 96.8 26.2996 100.7 26.2996H106.6V24.3996C106.6 19.6996 104.5 17.3996 100.4 17.3996C99.1 17.3996 97.7 17.5996 96.2 17.9996C94.7 18.3996 93.4 18.7996 92.2 19.3996L90.7 15.7996C92.2 14.9996 93.8 14.2996 95.6 13.7996C97.3 13.2996 99.1 13.0996 100.7 13.0996C107.8 13.0996 111.4 16.8996 111.4 24.4996V43.7996H107.6L107 40.4996C105.5 41.6996 103.9 42.6996 102.2 43.2996C100.5 43.9996 98.9 44.2996 97.3 44.2996C94.6 44.2996 92.5 43.4996 91 41.9996C89.4 40.4996 88.7 38.2996 88.7 35.6996ZM98.1 40.1996C98.8 40.1996 99.5 40.0996 100.3 39.8996C101.1 39.6996 101.8 39.4996 102.6 39.1996C103.4 38.8996 104.1 38.4996 104.7 38.0996C105.4 37.6996 106 37.1996 106.5 36.6996V29.5996H101.2C98.5 29.5996 96.6 30.0996 95.3 30.9996C94.1 31.8996 93.5 33.3996 93.5 35.3996C93.5 38.5996 95 40.1996 98.1 40.1996Z" fill="#FEE500"/>
<path d="M133 13.0996C137.2 13.0996 140.5 14.4996 142.9 17.1996C145.3 19.8996 146.5 23.7996 146.5 28.8996C146.5 33.8996 145.3 37.7996 142.9 40.3996C140.5 43.0996 137.2 44.3996 133 44.3996C128.8 44.3996 125.5 43.0996 123.1 40.3996C120.7 37.6996 119.5 33.8996 119.5 28.8996C119.5 23.7996 120.7 19.8996 123.1 17.1996C125.6 14.3996 128.9 13.0996 133 13.0996ZM133 17.1996C130.4 17.1996 128.3 18.1996 126.9 20.1996C125.5 22.1996 124.8 25.0996 124.8 28.8996C124.8 32.6996 125.5 35.5996 126.9 37.4996C128.3 39.3996 130.4 40.3996 133 40.3996C135.7 40.3996 137.7 39.3996 139.2 37.4996C140.6 35.5996 141.3 32.6996 141.3 28.8996C141.3 25.0996 140.6 22.1996 139.2 20.1996C137.8 18.1996 135.7 17.1996 133 17.1996Z" fill="#FEE500"/>
<path d="M162.1 44.0991V55.3992H154V13.5992H159.7L160.7 16.1992C162.4 14.4992 165 12.6992 169.2 12.6992C177.1 12.6992 180.8 18.5992 180.8 28.1992C180.8 38.1992 175 44.5991 166.7 44.5991C165.1 44.5991 163.9 44.4991 162.1 44.0991ZM162.1 20.3992V38.4992C162.5 38.5992 163.6 38.6992 164.7 38.6992C170.4 38.6992 172.7 34.6992 172.7 28.2992C172.7 22.6992 171.2 19.3992 166.6 19.3992C165.1 19.2992 163.4 19.6992 162.1 20.3992Z" fill="#FEE500"/>
<path d="M198.3 25.3992H202.9V24.3992C202.9 21.0992 201 19.4992 197.8 19.4992C195.3 19.4992 192.1 20.1992 189.5 21.4992L187.3 16.0992C190.2 14.0992 194.6 12.6992 198.5 12.6992C206.2 12.6992 210.4 16.7992 210.4 24.5992V43.7991H204.7L203.9 41.2991C200.6 43.6991 197.7 44.6992 195 44.6992C189.1 44.6992 185.8 41.1992 185.8 35.1992C185.8 28.7992 190.2 25.3992 198.3 25.3992ZM202.9 35.9992V30.4992H199.2C195.1 30.4992 193 31.9992 193 34.9992C193 37.2992 194.2 38.3992 196.5 38.3992C198.7 38.3992 201.5 37.2992 202.9 35.9992Z" fill="#FEE500"/>
<path d="M234.8 40.7004C232 48.2004 228.6 53.7004 223.7 56.7004L218.7 52.1004C221.6 49.6004 223.6 47.2004 225.4 43.9004L214.7 14.7004L222.7 12.5004L229.5 36.2004L236.3 12.4004L244.2 14.6004L234.8 40.7004Z" fill="#FEE500"/>
</g>
</svg>
