<svg width="245" height="57" viewBox="0 0 245 57" fill="none" xmlns="http://www.w3.org/2000/svg">
<g clip-path="url(#clip0_1106_2386)">
<path d="M5.1 43.8H0V1.1L5.1 0V43.8ZM18.7 12.8L22.7 15.7L12.9 28L24.2 41.6L20.3 44.6L6.9 28.2L18.7 12.8Z" fill="black"/>
<path d="M28 35.7C28 32.6 29 30.3 31.1 28.7C33.1 27.1 36.1 26.3 40 26.3H45.9V24.4C45.9 19.7 43.8 17.4 39.7 17.4C38.4 17.4 37 17.6 35.5 18C34 18.4 32.7 18.8 31.5 19.4L30 15.7C31.5 14.9 33.1 14.2 34.9 13.7C36.6 13.2 38.4 13 40 13C47.1 13 50.7 16.8 50.7 24.4V43.7H46.9L46.3 40.4C44.8 41.6 43.2 42.6 41.5 43.2C39.8 43.9 38.2 44.2 36.6 44.2C33.9 44.2 31.8 43.4 30.3 41.9C28.8 40.5 28 38.3 28 35.7ZM37.5 40.2C38.2 40.2 38.9 40.1 39.7 39.9C40.5 39.7 41.2 39.5 42 39.2C42.8 38.9 43.5 38.5 44.1 38.1C44.8 37.7 45.4 37.2 45.9 36.7V29.6H40.6C37.9 29.6 36 30.1 34.7 31C33.5 31.9 32.9 33.4 32.9 35.4C32.8 38.6 34.4 40.2 37.5 40.2Z" fill="black"/>
<path d="M65.7 43.8H60.6V1.1L65.7 0V43.8ZM79.3 12.8L83.3 15.7L73.5 28L84.8 41.6L80.9 44.6L67.6 28.2L79.3 12.8Z" fill="black"/>
<path d="M88.7 35.7001C88.7 32.6001 89.7 30.3001 91.8 28.7001C93.9 27.1001 96.8 26.3001 100.7 26.3001H106.6V24.4001C106.6 19.7001 104.5 17.4001 100.4 17.4001C99.1 17.4001 97.7 17.6001 96.2 18.0001C94.7 18.4001 93.4 18.8001 92.2 19.4001L90.7 15.8001C92.2 15.0001 93.8 14.3001 95.6 13.8001C97.3 13.3001 99.1 13.1001 100.7 13.1001C107.8 13.1001 111.4 16.9001 111.4 24.5001V43.8001H107.6L107 40.5001C105.5 41.7001 103.9 42.7001 102.2 43.3001C100.5 44.0001 98.9 44.3001 97.3 44.3001C94.6 44.3001 92.5 43.5001 91 42.0001C89.4 40.5001 88.7 38.3001 88.7 35.7001ZM98.1 40.2001C98.8 40.2001 99.5 40.1001 100.3 39.9001C101.1 39.7001 101.8 39.5001 102.6 39.2001C103.4 38.9001 104.1 38.5001 104.7 38.1001C105.4 37.7001 106 37.2001 106.5 36.7001V29.6001H101.2C98.5 29.6001 96.6 30.1001 95.3 31.0001C94.1 31.9001 93.5 33.4001 93.5 35.4001C93.5 38.6001 95 40.2001 98.1 40.2001Z" fill="black"/>
<path d="M133 13.1001C137.2 13.1001 140.5 14.5001 142.9 17.2001C145.3 19.9001 146.5 23.8001 146.5 28.9001C146.5 33.9001 145.3 37.8001 142.9 40.4001C140.5 43.1001 137.2 44.4001 133 44.4001C128.8 44.4001 125.5 43.1001 123.1 40.4001C120.7 37.7001 119.5 33.9001 119.5 28.9001C119.5 23.8001 120.7 19.9001 123.1 17.2001C125.6 14.4001 128.9 13.1001 133 13.1001ZM133 17.2001C130.4 17.2001 128.3 18.2001 126.9 20.2001C125.5 22.2001 124.8 25.1001 124.8 28.9001C124.8 32.7001 125.5 35.6001 126.9 37.5001C128.3 39.4001 130.4 40.4001 133 40.4001C135.7 40.4001 137.7 39.4001 139.2 37.5001C140.6 35.6001 141.3 32.7001 141.3 28.9001C141.3 25.1001 140.6 22.2001 139.2 20.2001C137.8 18.2001 135.7 17.2001 133 17.2001Z" fill="black"/>
<path d="M162.1 44.0999V55.4H154V13.6H159.7L160.7 16.2C162.4 14.5 165 12.7 169.2 12.7C177.1 12.7 180.8 18.6 180.8 28.2C180.8 38.2 175 44.5999 166.7 44.5999C165.1 44.5999 163.9 44.4999 162.1 44.0999ZM162.1 20.4V38.5C162.5 38.6 163.6 38.7 164.7 38.7C170.4 38.7 172.7 34.7 172.7 28.3C172.7 22.7 171.2 19.4 166.6 19.4C165.1 19.3 163.4 19.7 162.1 20.4Z" fill="black"/>
<path d="M198.3 25.4H202.9V24.4C202.9 21.1 201 19.5 197.8 19.5C195.3 19.5 192.1 20.2 189.5 21.5L187.3 16.1C190.2 14.1 194.6 12.7 198.5 12.7C206.2 12.7 210.4 16.8 210.4 24.6V43.7999H204.7L203.9 41.2999C200.6 43.6999 197.7 44.7 195 44.7C189.1 44.7 185.8 41.2 185.8 35.2C185.8 28.8 190.2 25.4 198.3 25.4ZM202.9 36V30.5H199.2C195.1 30.5 193 32 193 35C193 37.3 194.2 38.4 196.5 38.4C198.7 38.4 201.5 37.3 202.9 36Z" fill="black"/>
<path d="M234.8 40.6999C232 48.1999 228.6 53.6999 223.7 56.6999L218.7 52.0999C221.6 49.5999 223.6 47.1999 225.4 43.8999L214.7 14.6999L222.7 12.4999L229.5 36.1999L236.3 12.3999L244.2 14.5999L234.8 40.6999Z" fill="black"/>
</g>
<defs>
<clipPath id="clip0_1106_2386">
<rect width="244.3" height="56.7" fill="white"/>
</clipPath>
</defs>
</svg>