
<svg width="238" height="77" viewBox="0 0 238 77" fill="none" xmlns="http://www.w3.org/2000/svg">
<path d="M38.0599 76.12C17.0399 76.12 0 59.08 0 38.06C0 17.04 17.0399 0 38.0599 0C59.0799 0 76.12 17.04 76.12 38.06C76.13 59.08 59.0899 76.12 38.0599 76.12ZM45.4099 19.02V39.9501L30.7 19.02H19.0299V57.0801H30.72V36.1501L45.4299 57.0801H57.1V19.02H45.4099Z" fill="black"/>
<path d="M226.469 13.88L215.189 39.74L202.729 13.88H191.349L210.209 50.58L202.629 67.58H213.379L237.209 13.88H226.469ZM175.479 55.03H185.669V13.87H175.479V17.25C171.979 14.43 168.019 12.96 163.219 12.96C151.629 12.96 142.549 22.48 142.549 34.44C142.549 46.4 151.629 55.92 163.219 55.92C168.019 55.92 171.979 54.45 175.479 51.63V55.03ZM164.699 47.59C157.879 47.59 152.749 41.95 152.749 34.46C152.749 26.97 157.889 21.33 164.699 21.33C171.509 21.33 176.649 26.97 176.649 34.46C176.659 41.94 171.519 47.59 164.699 47.59ZM104.689 51.85C108.119 54.54 111.959 55.94 116.589 55.94C128.179 55.94 137.259 46.42 137.259 34.46C137.259 22.5 128.179 12.98 116.589 12.98C111.789 12.98 107.829 14.45 104.329 17.27V13.89H94.1385V67.59H104.679V51.85H104.689ZM103.159 34.46C103.159 26.97 108.299 21.33 115.109 21.33C121.919 21.33 127.059 26.97 127.059 34.46C127.059 41.95 121.919 47.59 115.109 47.59C108.299 47.59 103.159 41.94 103.159 34.46Z" fill="black"/>
</svg>
