<svg width="238" height="77" viewBox="0 0 238 77" fill="none" xmlns="http://www.w3.org/2000/svg">
<g clip-path="url(#clip0_7064_141)">
<path d="M38.0599 76.12C17.0399 76.12 0 59.08 0 38.06C0 17.04 17.0399 0 38.0599 0C59.0799 0 76.12 17.04 76.12 38.06C76.13 59.08 59.0899 76.12 38.0599 76.12ZM45.4099 19.02V39.9501L30.7 19.02H19.0299V57.0801H30.72V36.1501L45.4299 57.0801H57.1V19.02H45.4099Z" fill="#00DE5A"/>
<path d="M226.469 13.8809L215.189 39.7409L202.729 13.8809H191.349L210.209 50.5809L202.629 67.5809H213.379L237.209 13.8809H226.469ZM175.479 55.0309H185.669V13.8709H175.479V17.2509C171.979 14.4309 168.019 12.9609 163.219 12.9609C151.629 12.9609 142.549 22.4809 142.549 34.4409C142.549 46.4009 151.629 55.9209 163.219 55.9209C168.019 55.9209 171.979 54.4509 175.479 51.6309V55.0309ZM164.699 47.5909C157.879 47.5909 152.749 41.9509 152.749 34.4609C152.749 26.9709 157.889 21.3309 164.699 21.3309C171.509 21.3309 176.649 26.9709 176.649 34.4609C176.659 41.9409 171.519 47.5909 164.699 47.5909ZM104.689 51.8509C108.119 54.5409 111.959 55.9409 116.589 55.9409C128.179 55.9409 137.259 46.4209 137.259 34.4609C137.259 22.5009 128.179 12.9809 116.589 12.9809C111.789 12.9809 107.829 14.4509 104.329 17.2709V13.8909H94.1385V67.5909H104.679V51.8509H104.689ZM103.159 34.4609C103.159 26.9709 108.299 21.3309 115.109 21.3309C121.919 21.3309 127.059 26.9709 127.059 34.4609C127.059 41.9509 121.919 47.5909 115.109 47.5909C108.299 47.5909 103.159 41.9409 103.159 34.4609Z" fill="#00DE5A"/>
</g>
<defs>
<clipPath id="clip0_7064_141">
<rect width="238" height="77" fill="white"/>
</clipPath>
</defs>
</svg>
